# xmcd
#
# Track frame offsets:
#	150
#	10142
#	21521
#	31635
#	44518
#	57430
#	67412
#	78669
#	87444
#	96692
#	108109
#	120950
#	133311
#	141782
#	153891
#	167341
#	180010
#	192504
# 
# Disc length: 2704 seconds
# 
# Revision: 13
# Processed by: cddbd v1.5.1PL2 Copyright (c) Steve Scherf et al.
# Submitted via: Advanced CD Ripper Pro
#
DISCID=f10a8e12
DTITLE=The Commitments - The Commitments
DYEAR=1991
DGENRE=Soundtrack
TTITLE0=Mustang Sally
TTITLE1=Take Me To The River
TTITLE2=Chain Of Fools
TTITLE3=The Dark End Of The Street
TTITLE4=Destination Anywhere
TTITLE5=I Can't Stand The Rain
TTITLE6=Try A Little Tenderness
TTITLE7=Treat Her Right
TTITLE8=Do Right Woman Do Right Man
TTITLE9=Mr. Pitiful
TTITLE10=I Never Loved A Man
TTITLE11=In The Midnight Hour
TTITLE12=Bye Bye Baby
TTITLE13=Slip Away
TTITLE14=
TTITLE15=
TTITLE16=
TTITLE17=
EXTD=YEAR: 1991
EXTT0=
EXTT1=
EXTT2=
EXTT3=
EXTT4=
EXTT5=
EXTT6=
EXTT7=
EXTT8=
EXTT9=
EXTT10=
EXTT11=
EXTT12=
EXTT13=
EXTT14=
EXTT15=
EXTT16=
EXTT17=
PLAYORDER=
